<?xml version="1.0" encoding="UTF-8"?>
<svg id="Camada_2" data-name="Camada 2" xmlns="http://www.w3.org/2000/svg" xmlns:xlink="http://www.w3.org/1999/xlink" viewBox="0 0 553.07 514.21">
  <defs>
    <style>
      .cls-1 {
        fill: url(#Gradiente_sem_nome_5);
      }

      .cls-2 {
        fill: url(#Gradiente_sem_nome_6);
      }
    </style>
    <linearGradient id="Gradiente_sem_nome_6" data-name="Gradiente sem nome 6" x1="643.25" y1="299.95" x2="-416.36" y2="410.69" gradientUnits="userSpaceOnUse">
      <stop offset="0" stop-color="#005cff"/>
      <stop offset="1" stop-color="#000"/>
    </linearGradient>
    <linearGradient id="Gradiente_sem_nome_5" data-name="Gradiente sem nome 5" x1="622.26" y1="99.09" x2="-437.35" y2="209.83" gradientUnits="userSpaceOnUse">
      <stop offset="0" stop-color="#0a62ff"/>
      <stop offset="1" stop-color="#000"/>
    </linearGradient>
  </defs>
  <g id="Camada_1-2" data-name="Camada 1">
    <g>
      <path class="cls-2" d="M445.74,170.1c9.84-3.69,20.33,3.58,20.33,14.09v250.28c0,30.71-50.88,62.73-77.59,68.64-44.95,9.93-110.45-6.53-101.32-64.27,6.7-42.48,67.72-73.03,111.81-69.17,8.82.77,16.41-6.12,16.41-14.97v-72.47c0-10.66-10.77-17.93-20.66-13.96l-99.79,40.1c-3.55,1.43-7.51,1.45-11.07.06l-83.89-32.67c-9.86-3.84-20.51,3.43-20.51,14.02v154.45c0,20.34-32.02,47.68-48.71,56.57C87.76,523.68,3.77,521.71.1,459.78c-3.09-52.01,63.46-84.65,112.42-81.51,8.75.56,16.23-6.18,16.23-14.95v-173.28c0-10.51,10.5-17.78,20.34-14.08l135.04,50.76c3.41,1.28,7.17,1.28,10.58,0l151.04-56.62Z"/>
      <path class="cls-1" d="M547.05,238.59c-9.83,6.49-25.35,4.58-30.83-6.53-3.53-8.66,6.69-24.9,6.32-31.67-.21-3.82-4.47-5.09-5.42-8.11-3.88-12.3,9.38-19.71,9.38-21.04v-49.31c0-5.85-5.85-9.9-11.32-7.84l-213.45,80.3c-9.04,3.4-19.01,3.38-28.03-.06L44.49,106.88c-7.17-2.74-7.19-12.88-.03-15.64L274.18,2.74c9.51-3.66,20.05-3.65,29.55.03l235.55,91.35c2.54,1.74,2.57,4.11,2.93,6.83,2.75,20.63-3.72,50.82-.12,70.34.76,4.15,8.44,6.32,9.38,14.04,1.27,6.44-5.54,11.13-5.44,16.89.21,10.3,15.05,27.11,1.03,36.37Z"/>
    </g>
  </g>
</svg>